<svg
  xmlns="http://www.w3.org/2000/svg"
  width="24"
  height="24"
  viewBox="0 0 24 24"
  fill="none"
>
  <g clip-path="url(#clip0_3_4)">
    <path
      d="M18 16.1C17.2 16.1 16.6 16.4 16 16.9L8.9 12.7C9 12.5 9 12.2 9 12C9 11.8 9 11.5 8.9 11.3L16 7.2C16.5 7.7 17.2 8 18 8C19.7 8 21 6.7 21 5C21 3.3 19.7 2 18 2C16.3 2 15 3.3 15 5C15 5.2 15 5.5 15.1 5.7L8 9.8C7.5 9.3 6.8 9 6 9C4.3 9 3 10.3 3 12C3 13.7 4.3 15 6 15C6.8 15 7.5 14.7 8 14.2L15.1 18.4C15 18.6 15 18.8 15 19C15 20.6 16.3 21.9 17.9 21.9C19.5 21.9 20.8 20.6 20.8 19C20.8 17.4 19.6 16.1 18 16.1Z"
      fill="black"
    />
  </g>
  <defs>
    <clipPath id="clip0_3_4">
      <rect width="24" height="24" fill="white" />
    </clipPath>
  </defs>
</svg>
